HIERARCHY
ROOT Hips
{
  OFFSET -1.56614 0.00 -1.85809
  CHANNELS 6 Xposition Yposition Zposition Zrotation Xrotation Yrotation
  JOINT LHipJoint
  {
    OFFSET 0 0 0
    CHANNELS 3 Zrotation Xrotation Yrotation
    JOINT LeftUpLeg
    {
      OFFSET 1.8 -1.4 0.085
      CHANNELS 3 Zrotation Xrotation Yrotation
      JOINT LeftLeg
      {
        OFFSET 2.215 -6 0
        CHANNELS 3 Zrotation Xrotation Yrotation
        JOINT LeftFoot
        {
          OFFSET 2.5 -6.9 0
          CHANNELS 3 Zrotation Xrotation Yrotation
          JOINT LeftToeBase
          {
            OFFSET 0.2 -0.5 1.95
            CHANNELS 3 Zrotation Xrotation Yrotation
            End Site
            {
              OFFSET 0 0 1
            }
          }
        }
      }
    }
  }
  JOINT RHipJoint
  {
    OFFSET 0 0 0
    CHANNELS 3 Zrotation Xrotation Yrotation
    JOINT RightUpLeg
    {
      OFFSET -1.8 -1.4 0.085
      CHANNELS 3 Zrotation Xrotation Yrotation
      JOINT RightLeg
      {
        OFFSET -2.215 -6 0
        CHANNELS 3 Zrotation Xrotation Yrotation
        JOINT RightFoot
        {
          OFFSET -2.5 -6.9 0
          CHANNELS 3 Zrotation Xrotation Yrotation
          JOINT RightToeBase
          {
            OFFSET -0.2 -0.5 1.95
            CHANNELS 3 Zrotation Xrotation Yrotation
            End Site
            {
              OFFSET 0 0 1
            }
          }
        }
      }
    }
  }
  JOINT LowerBack
  {
    OFFSET 0 0 0
    CHANNELS 3 Zrotation Xrotation Yrotation
    JOINT Spine
    {
      OFFSET -0.087 1.94 -0.2889
      CHANNELS 3 Zrotation Xrotation Yrotation
      JOINT Spine1
      {
        OFFSET 0 1.95 0.06
        CHANNELS 3 Zrotation Xrotation Yrotation
        JOINT Neck
        {
          OFFSET 0 0 0
          CHANNELS 3 Zrotation Xrotation Yrotation
          JOINT Neck1
          {
            OFFSET 0 1.6 0.34
            CHANNELS 3 Zrotation Xrotation Yrotation
            JOINT Head
            {
              OFFSET 0 1.667 -0.24
              CHANNELS 3 Zrotation Xrotation Yrotation
              End Site
              {
                OFFSET 0 1.686 -0.12
              }
            }
          }
        }
        JOINT LeftShoulder
        {
          OFFSET 0 0 0
          CHANNELS 3 Zrotation Xrotation Yrotation
          JOINT LeftArm
          {
            OFFSET 2.7 1.55 -0.73
            CHANNELS 3 Zrotation Xrotation Yrotation
            JOINT LeftForeArm
            {
              OFFSET 5.45 0 0
              CHANNELS 3 Zrotation Xrotation Yrotation
              JOINT LeftHand
              {
                OFFSET 3.45 0 0
                CHANNELS 3 Zrotation Xrotation Yrotation
                JOINT LeftFingerBase
                {
                  OFFSET 0 0 0
                  CHANNELS 3 Zrotation Xrotation Yrotation
                  JOINT LeftHandIndex1
                  {
                    OFFSET 0.75 0 0
                    CHANNELS 3 Zrotation Xrotation Yrotation
                    End Site
                    {
                      OFFSET 0.6 0 0
                    }
                  }
                }
                JOINT LThumb
                {
                  OFFSET 0 0 0
                  CHANNELS 3 Zrotation Xrotation Yrotation
                  End Site
                  {
                    OFFSET 0.59 0 0.59
                  }
                }
              }
            }
          }
        }
        JOINT RightShoulder
        {
          OFFSET 0 0 0
          CHANNELS 3 Zrotation Xrotation Yrotation
          JOINT RightArm
          {
            OFFSET -2.7 1.55 -0.73
            CHANNELS 3 Zrotation Xrotation Yrotation
            JOINT RightForeArm
            {
              OFFSET -5.45 0 0
              CHANNELS 3 Zrotation Xrotation Yrotation
              JOINT RightHand
              {
                OFFSET -3.45 0 0
                CHANNELS 3 Zrotation Xrotation Yrotation
                JOINT RightFingerBase
                {
                  OFFSET 0 0 0
                  CHANNELS 3 Zrotation Xrotation Yrotation
                  JOINT RightHandIndex1
                  {
                    OFFSET -0.75 0 0
                    CHANNELS 3 Zrotation Xrotation Yrotation
                    End Site
                    {
                      OFFSET -0.6 0 0
                    }
                  }
                }
                JOINT RThumb
                {
                  OFFSET 0 0 0
                  CHANNELS 3 Zrotation Xrotation Yrotation
                  End Site
                  {
                    OFFSET -0.59 0 0.59
                  }
                }
              }
            }
          }
        }
      }
    }
  }
}
MOTION
Frames:	11
Frame Time:	0.00833333
0.743907 18.1844 -0.719156 0.00712485 0.00160064 0.000372428 2.62909e-018 0 -0 -19.8173 1.2027 1.67675 -0.0401833 0.903625 -0.921448 -0.893166 -2.06229 -0.789958 9.04649e-016 6.21202e-018 -1.32248e-018 2.62909e-018 0 -0 20.0202 3.12231 1.75326 -0.108536 -1.13656 -2.30885 0.939321 -1.97775 0.580271 -9.71146e-015 2.50236e-014 -4.60932e-015 2.62909e-018 0 -0 -0.00427488 0.00550258 -0.00170984 -0.000515613 -0.00900764 -0.00150361 0.00348378 -15.9986 5.7577e-005 0.00369535 21.0014 -0.000966912 -0.0068418 10.9965 0.00508166 0.378595 -0.000712102 3.47388 -20.3248 -48.0412 -28.7039 1.27243 52.4468 0.000308505 4.46672 -2.44252 -3.50489 -3.37934e-015 3.97569e-016 3.18055e-015 -9.93923e-016 1.59028e-015 9.54166e-015 -1.98785e-015 -3.97569e-016 -0 -0.356018 0.00840786 -3.47751 16.8248 -47.1269 19.2484 3.53495 50.5543 -7.62358e-005 -3.54954 -1.9455 0.0248939 -2.48481e-017 0 -3.18055e-015 2.48481e-017 1.98785e-016 -1.59028e-015 0 0 -1.59028e-015 
0.743105 18.1849 -0.719137 0.00712447 0.00842152 0.00266139 4.75361e-019 1.55301e-018 -1.55301e-018 -19.7981 1.02661 1.60974 -0.0458501 1.18655 -0.87146 -0.91279 -2.02419 -0.776821 -3.8537e-018 2.48481e-017 1.35888e-017 4.75361e-019 1.55301e-018 -1.55301e-018 20.0233 3.08467 1.76985 -0.108625 -1.12523 -2.33656 0.928869 -1.96791 0.575418 -6.89671e-016 2.50236e-014 -4.60932e-015 4.75361e-019 1.55301e-018 -1.55301e-018 -0.0235558 0.0290922 -0.00955556 -0.00243205 -0.0486878 -0.00849992 0.0191237 -15.9916 7.74904e-006 0.0204042 21.0084 -0.00563824 -0.0371052 10.9806 0.0264805 0.374204 -0.000712099 3.47756 -20.3087 -48.0963 -28.7306 1.21871 52.2126 0.000306876 4.40281 -2.46212 -3.18043 3.97569e-016 1.19271e-015 6.36111e-015 -1.78906e-015 1.19271e-015 6.36111e-015 1.78906e-015 0 3.18055e-015 -0.356018 0.00840786 -3.47751 16.8671 -47.1257 19.2785 3.52195 50.5512 -7.62308e-005 -3.53713 -1.9455 0.023623 -7.45443e-017 0 -1.59028e-015 -2.48481e-017 9.93923e-017 -0 -4.96962e-017 0 -0 
0.742294 18.1855 -0.719118 0.0071235 0.0153093 0.00507824 -3.00857e-019 0 1.55301e-018 -19.779 0.845953 1.54109 -0.0522217 1.47663 -0.819922 -0.93326 -1.98511 -0.763329 2.12798e-015 0 2.64011e-017 -3.00857e-019 0 1.55301e-018 20.0265 3.04713 1.78638 -0.108731 -1.1145 -2.36448 0.918158 -1.95774 0.570422 -9.12377e-015 2.5022e-014 -4.61553e-015 -3.00857e-019 0 1.55301e-018 -0.0431798 0.0529345 -0.0175623 -0.00433425 -0.0889518 -0.0156533 0.0350365 -15.9844 -8.68939e-005 0.0374226 21.0156 -0.0104386 -0.0678209 10.9645 0.0480488 0.369751 -0.000712096 3.48128 -20.2933 -48.1525 -28.7583 1.16359 51.9722 0.000305227 4.33763 -2.48223 -2.84702 -3.97569e-016 3.97569e-016 3.18055e-015 -9.93923e-016 1.19271e-015 -3.18055e-015 9.93923e-016 0 -0 -0.356018 0.00840786 -3.47751 16.9102 -47.1243 19.3089 3.50894 50.5475 -7.62249e-005 -3.52447 -1.9455 0.021951 9.93923e-017 0 1.59028e-015 -2.48481e-017 0 -0 1.2424e-016 0 3.18055e-015 
0.741597 18.1859 -0.719093 0.00712258 0.0214609 0.0060884 -1.99434e-019 0 -1.55301e-018 -19.7647 0.715432 1.49077 -0.0566575 1.68809 -0.785556 -0.944626 -1.95685 -0.753748 2.9781e-015 -9.93923e-017 -1.78596e-017 -1.99434e-019 0 -1.55301e-018 20.0296 3.00843 1.80342 -0.108511 -1.09723 -2.39021 0.910315 -1.95121 0.567015 1.63521e-015 2.50344e-014 -4.60311e-015 -1.99434e-019 0 -1.55301e-018 -0.0589542 0.0739972 -0.0237979 -0.00650786 -0.122793 -0.0210787 0.0479485 -15.9794 0.000311459 0.0510502 21.0205 -0.013825 -0.0934191 10.9516 0.0677262 0.365976 -0.000712094 3.48445 -20.2716 -48.1962 -28.7762 1.12379 51.8 0.00030406 4.28901 -2.49591 -2.61196 1.98785e-016 0 6.36111e-015 -9.93923e-016 -3.97569e-016 6.36111e-015 1.59028e-015 -7.95139e-016 3.18055e-015 -0.356018 0.00840786 -3.47751 16.9452 -47.1247 19.3357 3.49601 50.5496 -7.62282e-005 -3.51453 -1.9455 0.0246923 -7.45443e-017 0 -0 1.73937e-016 0 -0 -4.96962e-017 0 1.59028e-015 
0.741142 18.186 -0.719055 0.00614774 0.0261338 0.004118 -1.97159e-019 -3.10601e-018 -0 -19.7598 0.690627 1.47902 -0.0560927 1.73384 -0.787441 -0.936633 -1.95147 -0.752439 2.70216e-015 0 3.18366e-017 -1.97159e-019 -3.10601e-018 -0 20.0325 2.96683 1.82172 -0.107598 -1.0658 -2.41157 0.908557 -1.95247 0.567003 1.48749e-017 2.5022e-014 -4.60311e-015 -1.97159e-019 -3.10601e-018 -0 -0.0665937 0.0892067 -0.0263052 -0.0093013 -0.143216 -0.0228557 0.0545428 -15.9791 0.0017213 0.0575463 21.0209 -0.0142619 -0.108241 10.9457 0.0833673 0.363616 -0.000712092 3.48645 -20.2363 -48.2131 -28.7732 1.11609 51.7713 0.000303866 4.27494 -2.49617 -2.58426 -1.39149e-015 1.19271e-015 3.18055e-015 -2.98177e-015 1.19271e-015 3.18055e-015 0 3.97569e-016 -0 -0.356018 0.00840786 -3.47751 16.9632 -47.1289 19.3546 3.48313 50.5639 -7.62514e-005 -3.51025 -1.9455 0.0369103 -9.93923e-017 1.98785e-016 -4.77083e-015 -1.49089e-016 0 -3.18055e-015 -7.45443e-017 1.98785e-016 -3.18055e-015 
0.741024 18.1856 -0.719031 0.00177749 0.0299014 -0.00211772 -5.96785e-019 0 -0 -19.7671 0.808951 1.51932 -0.0487907 1.55518 -0.839407 -0.900444 -1.97809 -0.762797 4.0019e-015 4.96962e-017 3.10601e-017 -5.96785e-019 0 -0 20.0354 2.9142 1.84478 -0.105553 -1.00927 -2.4306 0.915669 -1.96615 0.572223 -4.16278e-016 2.5022e-014 -4.62174e-015 -5.96785e-019 0 -0 -0.0627582 0.0965783 -0.0238447 -0.0138954 -0.147301 -0.0196081 0.052695 -15.9849 0.00408571 0.054665 21.0151 -0.0111828 -0.108342 10.9488 0.0927346 0.362946 -0.000712092 3.48707 -20.1785 -48.1931 -28.7385 1.1487 51.934 0.000304967 4.30859 -2.47799 -2.83818 -1.78906e-015 1.19271e-015 3.18055e-015 -2.18663e-015 3.97569e-016 6.36111e-015 -3.97569e-016 3.97569e-016 -0 -0.356018 0.00840786 -3.47751 16.96 -47.1386 19.364 3.4689 50.5967 -7.63046e-005 -3.51258 -1.9455 0.0645574 2.48481e-017 -9.93923e-017 -3.18055e-015 2.75869e-033 9.93923e-017 -1.59028e-015 4.96962e-017 -9.93923e-017 -1.59028e-015 
0.74109 18.185 -0.719001 -0.00266634 0.0326518 -0.0106283 -2.06259e-019 0 4.65902e-018 -19.7818 1.0072 1.58878 -0.0383851 1.25121 -0.918875 -0.849455 -2.0221 -0.779454 4.05286e-016 0 -3.72721e-017 -2.06259e-019 0 4.65902e-018 20.0382 2.85872 1.86909 -0.10294 -0.941478 -2.44666 0.927446 -1.98588 0.580068 3.67807e-016 2.50034e-014 -4.61553e-015 -2.06259e-019 0 4.65902e-018 -0.0527325 0.099532 -0.0185724 -0.0190437 -0.141409 -0.013594 0.0460814 -15.9942 0.00717711 0.0464183 21.0058 -0.00591791 -0.100289 10.9571 0.0989771 0.363326 -0.000712092 3.48682 -20.1102 -48.1528 -28.6877 1.20528 52.205 0.000306824 4.36877 -2.44956 -3.24896 -6.62086e-032 1.19271e-015 3.18055e-015 -2.38542e-015 1.19271e-015 9.54166e-015 1.59028e-015 0 -0 -0.356018 0.00840786 -3.47751 16.9441 -47.1512 19.3675 3.45459 50.639 -7.63731e-005 -3.51908 -1.94549 0.0996092 -7.45443e-017 -9.93923e-017 -0 -2.75869e-033 -9.93923e-017 -1.59028e-015 -4.96962e-017 -9.93923e-017 1.59028e-015 
0.741135 18.1844 -0.718923 -0.00627903 0.0337417 -0.0186683 -1.43623e-018 6.21202e-018 -6.21202e-018 -19.7972 1.20151 1.6571 -0.0288357 0.953495 -0.995428 -0.802311 -2.06368 -0.795072 -2.21789e-016 0 -2.48481e-017 -1.43623e-018 6.21202e-018 -6.21202e-018 20.0407 2.81442 1.88856 -0.100627 -0.883487 -2.45729 0.938014 -2.00241 0.586791 6.01829e-015 2.50344e-014 -4.60932e-015 -1.43623e-018 6.21202e-018 -6.21202e-018 -0.04374 0.102568 -0.0133142 -0.0226561 -0.133155 -0.00784859 0.0395304 -16.0036 0.0108803 0.0380044 20.9964 -1.68352e-005 -0.0928601 10.9656 0.106639 0.364006 -0.000712092 3.48631 -20.0488 -48.1148 -28.6428 1.26558 52.4753 0.000308704 4.4266 -2.42193 -3.65068 -3.08116e-015 7.95139e-016 -3.18055e-015 -2.38542e-015 1.59028e-015 -0 -1.59028e-015 3.97569e-016 -6.36111e-015 -0.356018 0.00840786 -3.47751 16.9263 -47.1632 19.37 3.44248 50.6777 -7.64361e-005 -3.527 -1.94549 0.130244 -1.73937e-016 0 -1.59028e-015 4.96962e-017 -1.98785e-016 1.59028e-015 -1.49089e-016 0 -0 
0.740957 18.1842 -0.718751 -0.00814997 0.0324285 -0.023531 -1.65917e-018 1.2424e-017 -0 -19.8059 1.31044 1.69478 -0.0228015 0.789881 -1.03948 -0.77722 -2.08342 -0.802467 -6.32085e-016 6.21202e-018 -0 -1.65917e-018 1.2424e-017 -0 20.0424 2.79531 1.89714 -0.0994924 -0.856149 -2.45986 0.941663 -2.00647 0.588651 -1.24417e-015 2.5022e-014 -4.60932e-015 -1.65917e-018 1.2424e-017 -0 -0.0428809 0.110067 -0.010835 -0.0225905 -0.129759 -0.00535822 0.0376964 -16.0098 0.015118 0.0344196 20.9902 0.00506353 -0.094507 10.9696 0.120174 0.364272 -0.000712092 3.48613 -20.0116 -48.1014 -28.6257 1.31036 52.6394 0.000309861 4.4532 -2.40602 -3.88241 -9.93923e-016 7.95139e-016 -3.18055e-015 -1.39149e-015 1.19271e-015 -0 4.96962e-016 0 -6.36111e-015 -0.356022 0.00840786 -3.47744 16.9169 -47.1713 19.3758 3.43497 50.7003 -7.64729e-005 -3.53381 -1.94549 0.144628 -1.98785e-016 9.93923e-017 -3.18055e-015 2.48481e-017 0 -3.18055e-015 -1.73937e-016 9.93923e-017 -1.59028e-015 
0.740533 18.1843 -0.718435 -0.00777812 0.0268974 -0.0245897 7.73469e-020 -3.10601e-018 3.10601e-018 -19.8077 1.33379 1.70199 -0.0196385 0.762405 -1.05046 -0.776357 -2.07925 -0.800776 3.19295e-015 -6.21202e-018 2.48481e-017 7.73469e-020 -3.10601e-018 3.10601e-018 20.0432 2.80734 1.89235 -0.0997726 -0.86588 -2.45076 0.938386 -1.99385 0.584061 -2.87662e-015 2.50344e-014 -4.5969e-015 7.73469e-020 -3.10601e-018 3.10601e-018 -0.051471 0.122206 -0.0114574 -0.01718 -0.12849 -0.00672112 0.0400667 -16.013 0.0204225 0.0349122 20.987 0.010045 -0.104172 10.968 0.140227 0.364307 -0.000712092 3.4861 -20.0031 -48.1148 -28.641 1.34672 52.7056 0.000310331 4.44463 -2.40197 -3.94672 -2.08724e-015 3.97569e-016 -0 -1.78906e-015 7.95139e-016 -0 -6.95746e-016 -3.97569e-016 -3.18055e-015 -0.356044 0.00840786 -3.47719 16.9139 -47.1747 19.3842 3.43464 50.7037 -7.64785e-005 -3.54187 -1.94549 0.137343 -6.21202e-017 0 1.59028e-015 -6.21202e-017 0 -0 -4.96962e-017 0 3.18055e-015 
0.739992 18.1846 -0.718046 -0.00609962 0.0191645 -0.0238571 2.97255e-019 3.10601e-018 -0 -19.8063 1.31552 1.6944 -0.0177514 0.800546 -1.04476 -0.787981 -2.06343 -0.794628 1.26165e-015 0 -0 2.97255e-019 3.10601e-018 -0 20.0434 2.83769 1.87965 -0.100798 -0.895756 -2.43461 0.931258 -1.97328 0.576445 7.8139e-015 2.50158e-014 -4.62174e-015 2.97255e-019 3.10601e-018 -0 -0.0645213 0.136473 -0.0134083 -0.00905971 -0.127901 -0.00979964 0.0445966 -16.0148 0.0263608 0.037466 20.9851 0.0150677 -0.118251 10.9644 0.163829 0.364342 -0.000712092 3.48604 -20.01 -48.1411 -28.6728 1.37867 52.7232 0.000310456 4.41957 -2.40389 -3.9278 -1.98785e-016 1.19271e-015 -3.18055e-015 -2.38542e-015 1.19271e-015 -3.18055e-015 1.19271e-015 0 -6.36111e-015 -0.356076 0.00840787 -3.47694 16.9136 -47.1759 19.3935 3.43791 50.6975 -7.64684e-005 -3.55043 -1.94549 0.119576 5.51738e-032 3.97569e-016 -7.95139e-015 4.96962e-017 1.98785e-016 -7.95139e-015 2.48481e-017 3.97569e-016 -6.36111e-015 
